<svg width="121" height="120" viewBox="0 0 121 120" fill="none" xmlns="http://www.w3.org/2000/svg">
<g clip-path="url(#clip0_221_1228)">
<path d="M120.5 0H0.5V120H120.5V0Z" fill="white"/>
<path d="M9.3889 4.44446H4.94446V8.8889H9.3889V4.44446Z" fill="black"/>
<path d="M13.8334 4.44446H9.38892V8.8889H13.8334V4.44446Z" fill="black"/>
<path d="M18.2778 4.44446H13.8334V8.8889H18.2778V4.44446Z" fill="black"/>
<path d="M22.7223 4.44446H18.2778V8.8889H22.7223V4.44446Z" fill="black"/>
<path d="M27.1666 4.44446H22.7222V8.8889H27.1666V4.44446Z" fill="black"/>
<path d="M31.6111 4.44446H27.1666V8.8889H31.6111V4.44446Z" fill="black"/>
<path d="M36.0555 4.44446H31.6111V8.8889H36.0555V4.44446Z" fill="black"/>
<path d="M49.3889 4.44446H44.9445V8.8889H49.3889V4.44446Z" fill="black"/>
<path d="M53.8334 4.44446H49.3889V8.8889H53.8334V4.44446Z" fill="black"/>
<path d="M58.2778 4.44446H53.8334V8.8889H58.2778V4.44446Z" fill="black"/>
<path d="M71.6111 4.44446H67.1666V8.8889H71.6111V4.44446Z" fill="black"/>
<path d="M80.5 4.44446H76.0555V8.8889H80.5V4.44446Z" fill="black"/>
<path d="M89.3889 4.44446H84.9445V8.8889H89.3889V4.44446Z" fill="black"/>
<path d="M93.8334 4.44446H89.3889V8.8889H93.8334V4.44446Z" fill="black"/>
<path d="M98.2778 4.44446H93.8334V8.8889H98.2778V4.44446Z" fill="black"/>
<path d="M102.722 4.44446H98.2778V8.8889H102.722V4.44446Z" fill="black"/>
<path d="M107.167 4.44446H102.722V8.8889H107.167V4.44446Z" fill="black"/>
<path d="M111.611 4.44446H107.167V8.8889H111.611V4.44446Z" fill="black"/>
<path d="M116.056 4.44446H111.611V8.8889H116.056V4.44446Z" fill="black"/>
<path d="M9.3889 8.88892H4.94446V13.3334H9.3889V8.88892Z" fill="black"/>
<path d="M36.0555 8.88892H31.6111V13.3334H36.0555V8.88892Z" fill="black"/>
<path d="M58.2778 8.88892H53.8334V13.3334H58.2778V8.88892Z" fill="black"/>
<path d="M62.7223 8.88892H58.2778V13.3334H62.7223V8.88892Z" fill="black"/>
<path d="M67.1666 8.88892H62.7222V13.3334H67.1666V8.88892Z" fill="black"/>
<path d="M71.6111 8.88892H67.1666V13.3334H71.6111V8.88892Z" fill="black"/>
<path d="M80.5 8.88892H76.0555V13.3334H80.5V8.88892Z" fill="black"/>
<path d="M89.3889 8.88892H84.9445V13.3334H89.3889V8.88892Z" fill="black"/>
<path d="M116.056 8.88892H111.611V13.3334H116.056V8.88892Z" fill="black"/>
<path d="M9.3889 13.3334H4.94446V17.7778H9.3889V13.3334Z" fill="black"/>
<path d="M18.2778 13.3334H13.8334V17.7778H18.2778V13.3334Z" fill="black"/>
<path d="M22.7223 13.3334H18.2778V17.7778H22.7223V13.3334Z" fill="black"/>
<path d="M27.1666 13.3334H22.7222V17.7778H27.1666V13.3334Z" fill="black"/>
<path d="M36.0555 13.3334H31.6111V17.7778H36.0555V13.3334Z" fill="black"/>
<path d="M49.3889 13.3334H44.9445V17.7778H49.3889V13.3334Z" fill="black"/>
<path d="M53.8334 13.3334H49.3889V17.7778H53.8334V13.3334Z" fill="black"/>
<path d="M58.2778 13.3334H53.8334V17.7778H58.2778V13.3334Z" fill="black"/>
<path d="M71.6111 13.3334H67.1666V17.7778H71.6111V13.3334Z" fill="black"/>
<path d="M80.5 13.3334H76.0555V17.7778H80.5V13.3334Z" fill="black"/>
<path d="M89.3889 13.3334H84.9445V17.7778H89.3889V13.3334Z" fill="black"/>
<path d="M98.2778 13.3334H93.8334V17.7778H98.2778V13.3334Z" fill="black"/>
<path d="M102.722 13.3334H98.2778V17.7778H102.722V13.3334Z" fill="black"/>
<path d="M107.167 13.3334H102.722V17.7778H107.167V13.3334Z" fill="black"/>
<path d="M116.056 13.3334H111.611V17.7778H116.056V13.3334Z" fill="black"/>
<path d="M9.3889 17.7778H4.94446V22.2223H9.3889V17.7778Z" fill="black"/>
<path d="M18.2778 17.7778H13.8334V22.2223H18.2778V17.7778Z" fill="black"/>
<path d="M22.7223 17.7778H18.2778V22.2223H22.7223V17.7778Z" fill="black"/>
<path d="M27.1666 17.7778H22.7222V22.2223H27.1666V17.7778Z" fill="black"/>
<path d="M36.0555 17.7778H31.6111V22.2223H36.0555V17.7778Z" fill="black"/>
<path d="M44.9444 17.7778H40.5V22.2223H44.9444V17.7778Z" fill="black"/>
<path d="M53.8334 17.7778H49.3889V22.2223H53.8334V17.7778Z" fill="black"/>
<path d="M58.2778 17.7778H53.8334V22.2223H58.2778V17.7778Z" fill="black"/>
<path d="M67.1666 17.7778H62.7222V22.2223H67.1666V17.7778Z" fill="black"/>
<path d="M76.0555 17.7778H71.6111V22.2223H76.0555V17.7778Z" fill="black"/>
<path d="M80.5 17.7778H76.0555V22.2223H80.5V17.7778Z" fill="black"/>
<path d="M89.3889 17.7778H84.9445V22.2223H89.3889V17.7778Z" fill="black"/>
<path d="M98.2778 17.7778H93.8334V22.2223H98.2778V17.7778Z" fill="black"/>
<path d="M102.722 17.7778H98.2778V22.2223H102.722V17.7778Z" fill="black"/>
<path d="M107.167 17.7778H102.722V22.2223H107.167V17.7778Z" fill="black"/>
<path d="M116.056 17.7778H111.611V22.2223H116.056V17.7778Z" fill="black"/>
<path d="M9.3889 22.2222H4.94446V26.6666H9.3889V22.2222Z" fill="black"/>
<path d="M18.2778 22.2222H13.8334V26.6666H18.2778V22.2222Z" fill="black"/>
<path d="M22.7223 22.2222H18.2778V26.6666H22.7223V22.2222Z" fill="black"/>
<path d="M27.1666 22.2222H22.7222V26.6666H27.1666V22.2222Z" fill="black"/>
<path d="M36.0555 22.2222H31.6111V26.6666H36.0555V22.2222Z" fill="black"/>
<path d="M44.9444 22.2222H40.5V26.6666H44.9444V22.2222Z" fill="black"/>
<path d="M53.8334 22.2222H49.3889V26.6666H53.8334V22.2222Z" fill="black"/>
<path d="M62.7223 22.2222H58.2778V26.6666H62.7223V22.2222Z" fill="black"/>
<path d="M71.6111 22.2222H67.1666V26.6666H71.6111V22.2222Z" fill="black"/>
<path d="M80.5 22.2222H76.0555V26.6666H80.5V22.2222Z" fill="black"/>
<path d="M89.3889 22.2222H84.9445V26.6666H89.3889V22.2222Z" fill="black"/>
<path d="M98.2778 22.2222H93.8334V26.6666H98.2778V22.2222Z" fill="black"/>
<path d="M102.722 22.2222H98.2778V26.6666H102.722V22.2222Z" fill="black"/>
<path d="M107.167 22.2222H102.722V26.6666H107.167V22.2222Z" fill="black"/>
<path d="M116.056 22.2222H111.611V26.6666H116.056V22.2222Z" fill="black"/>
<path d="M9.3889 26.6666H4.94446V31.1111H9.3889V26.6666Z" fill="black"/>
<path d="M36.0555 26.6666H31.6111V31.1111H36.0555V26.6666Z" fill="black"/>
<path d="M49.3889 26.6666H44.9445V31.1111H49.3889V26.6666Z" fill="black"/>
<path d="M53.8334 26.6666H49.3889V31.1111H53.8334V26.6666Z" fill="black"/>
<path d="M67.1666 26.6666H62.7222V31.1111H67.1666V26.6666Z" fill="black"/>
<path d="M89.3889 26.6666H84.9445V31.1111H89.3889V26.6666Z" fill="black"/>
<path d="M116.056 26.6666H111.611V31.1111H116.056V26.6666Z" fill="black"/>
<path d="M9.3889 31.1111H4.94446V35.5555H9.3889V31.1111Z" fill="black"/>
<path d="M13.8334 31.1111H9.38892V35.5555H13.8334V31.1111Z" fill="black"/>
<path d="M18.2778 31.1111H13.8334V35.5555H18.2778V31.1111Z" fill="black"/>
<path d="M22.7223 31.1111H18.2778V35.5555H22.7223V31.1111Z" fill="black"/>
<path d="M27.1666 31.1111H22.7222V35.5555H27.1666V31.1111Z" fill="black"/>
<path d="M31.6111 31.1111H27.1666V35.5555H31.6111V31.1111Z" fill="black"/>
<path d="M36.0555 31.1111H31.6111V35.5555H36.0555V31.1111Z" fill="black"/>
<path d="M44.9444 31.1111H40.5V35.5555H44.9444V31.1111Z" fill="black"/>
<path d="M53.8334 31.1111H49.3889V35.5555H53.8334V31.1111Z" fill="black"/>
<path d="M62.7223 31.1111H58.2778V35.5555H62.7223V31.1111Z" fill="black"/>
<path d="M71.6111 31.1111H67.1666V35.5555H71.6111V31.1111Z" fill="black"/>
<path d="M80.5 31.1111H76.0555V35.5555H80.5V31.1111Z" fill="black"/>
<path d="M89.3889 31.1111H84.9445V35.5555H89.3889V31.1111Z" fill="black"/>
<path d="M93.8334 31.1111H89.3889V35.5555H93.8334V31.1111Z" fill="black"/>
<path d="M98.2778 31.1111H93.8334V35.5555H98.2778V31.1111Z" fill="black"/>
<path d="M102.722 31.1111H98.2778V35.5555H102.722V31.1111Z" fill="black"/>
<path d="M107.167 31.1111H102.722V35.5555H107.167V31.1111Z" fill="black"/>
<path d="M111.611 31.1111H107.167V35.5555H111.611V31.1111Z" fill="black"/>
<path d="M116.056 31.1111H111.611V35.5555H116.056V31.1111Z" fill="black"/>
<path d="M49.3889 35.5555H44.9445V40H49.3889V35.5555Z" fill="black"/>
<path d="M62.7223 35.5555H58.2778V40H62.7223V35.5555Z" fill="black"/>
<path d="M80.5 35.5555H76.0555V40H80.5V35.5555Z" fill="black"/>
<path d="M9.3889 40H4.94446V44.4444H9.3889V40Z" fill="black"/>
<path d="M13.8334 40H9.38892V44.4444H13.8334V40Z" fill="black"/>
<path d="M31.6111 40H27.1666V44.4444H31.6111V40Z" fill="black"/>
<path d="M36.0555 40H31.6111V44.4444H36.0555V40Z" fill="black"/>
<path d="M40.5 40H36.0555V44.4444H40.5V40Z" fill="black"/>
<path d="M49.3889 40H44.9445V44.4444H49.3889V40Z" fill="black"/>
<path d="M53.8334 40H49.3889V44.4444H53.8334V40Z" fill="black"/>
<path d="M62.7223 40H58.2778V44.4444H62.7223V40Z" fill="black"/>
<path d="M67.1666 40H62.7222V44.4444H67.1666V40Z" fill="black"/>
<path d="M76.0555 40H71.6111V44.4444H76.0555V40Z" fill="black"/>
<path d="M80.5 40H76.0555V44.4444H80.5V40Z" fill="black"/>
<path d="M98.2778 40H93.8334V44.4444H98.2778V40Z" fill="black"/>
<path d="M102.722 40H98.2778V44.4444H102.722V40Z" fill="black"/>
<path d="M27.1666 44.4445H22.7222V48.8889H27.1666V44.4445Z" fill="black"/>
<path d="M31.6111 44.4445H27.1666V48.8889H31.6111V44.4445Z" fill="black"/>
<path d="M40.5 44.4445H36.0555V48.8889H40.5V44.4445Z" fill="black"/>
<path d="M53.8334 44.4445H49.3889V48.8889H53.8334V44.4445Z" fill="black"/>
<path d="M67.1666 44.4445H62.7222V48.8889H67.1666V44.4445Z" fill="black"/>
<path d="M76.0555 44.4445H71.6111V48.8889H76.0555V44.4445Z" fill="black"/>
<path d="M93.8334 44.4445H89.3889V48.8889H93.8334V44.4445Z" fill="black"/>
<path d="M98.2778 44.4445H93.8334V48.8889H98.2778V44.4445Z" fill="black"/>
<path d="M102.722 44.4445H98.2778V48.8889H102.722V44.4445Z" fill="black"/>
<path d="M107.167 44.4445H102.722V48.8889H107.167V44.4445Z" fill="black"/>
<path d="M111.611 44.4445H107.167V48.8889H111.611V44.4445Z" fill="black"/>
<path d="M9.3889 48.8889H4.94446V53.3334H9.3889V48.8889Z" fill="black"/>
<path d="M22.7223 48.8889H18.2778V53.3334H22.7223V48.8889Z" fill="black"/>
<path d="M27.1666 48.8889H22.7222V53.3334H27.1666V48.8889Z" fill="black"/>
<path d="M36.0555 48.8889H31.6111V53.3334H36.0555V48.8889Z" fill="black"/>
<path d="M40.5 48.8889H36.0555V53.3334H40.5V48.8889Z" fill="black"/>
<path d="M44.9444 48.8889H40.5V53.3334H44.9444V48.8889Z" fill="black"/>
<path d="M49.3889 48.8889H44.9445V53.3334H49.3889V48.8889Z" fill="black"/>
<path d="M58.2778 48.8889H53.8334V53.3334H58.2778V48.8889Z" fill="black"/>
<path d="M62.7223 48.8889H58.2778V53.3334H62.7223V48.8889Z" fill="black"/>
<path d="M76.0555 48.8889H71.6111V53.3334H76.0555V48.8889Z" fill="black"/>
<path d="M84.9444 48.8889H80.5V53.3334H84.9444V48.8889Z" fill="black"/>
<path d="M89.3889 48.8889H84.9445V53.3334H89.3889V48.8889Z" fill="black"/>
<path d="M98.2778 48.8889H93.8334V53.3334H98.2778V48.8889Z" fill="black"/>
<path d="M102.722 48.8889H98.2778V53.3334H102.722V48.8889Z" fill="black"/>
<path d="M111.611 48.8889H107.167V53.3334H111.611V48.8889Z" fill="black"/>
<path d="M116.056 48.8889H111.611V53.3334H116.056V48.8889Z" fill="black"/>
<path d="M31.6111 53.3334H27.1666V57.7778H31.6111V53.3334Z" fill="black"/>
<path d="M44.9444 53.3334H40.5V57.7778H44.9444V53.3334Z" fill="black"/>
<path d="M53.8334 53.3334H49.3889V57.7778H53.8334V53.3334Z" fill="black"/>
<path d="M58.2778 53.3334H53.8334V57.7778H58.2778V53.3334Z" fill="black"/>
<path d="M71.6111 53.3334H67.1666V57.7778H71.6111V53.3334Z" fill="black"/>
<path d="M76.0555 53.3334H71.6111V57.7778H76.0555V53.3334Z" fill="black"/>
<path d="M80.5 53.3334H76.0555V57.7778H80.5V53.3334Z" fill="black"/>
<path d="M84.9444 53.3334H80.5V57.7778H84.9444V53.3334Z" fill="black"/>
<path d="M89.3889 53.3334H84.9445V57.7778H89.3889V53.3334Z" fill="black"/>
<path d="M93.8334 53.3334H89.3889V57.7778H93.8334V53.3334Z" fill="black"/>
<path d="M98.2778 53.3334H93.8334V57.7778H98.2778V53.3334Z" fill="black"/>
<path d="M102.722 53.3334H98.2778V57.7778H102.722V53.3334Z" fill="black"/>
<path d="M116.056 53.3334H111.611V57.7778H116.056V53.3334Z" fill="black"/>
<path d="M13.8334 57.7778H9.38892V62.2223H13.8334V57.7778Z" fill="black"/>
<path d="M27.1666 57.7778H22.7222V62.2223H27.1666V57.7778Z" fill="black"/>
<path d="M36.0555 57.7778H31.6111V62.2223H36.0555V57.7778Z" fill="black"/>
<path d="M40.5 57.7778H36.0555V62.2223H40.5V57.7778Z" fill="black"/>
<path d="M44.9444 57.7778H40.5V62.2223H44.9444V57.7778Z" fill="black"/>
<path d="M49.3889 57.7778H44.9445V62.2223H49.3889V57.7778Z" fill="black"/>
<path d="M53.8334 57.7778H49.3889V62.2223H53.8334V57.7778Z" fill="black"/>
<path d="M71.6111 57.7778H67.1666V62.2223H71.6111V57.7778Z" fill="black"/>
<path d="M80.5 57.7778H76.0555V62.2223H80.5V57.7778Z" fill="black"/>
<path d="M89.3889 57.7778H84.9445V62.2223H89.3889V57.7778Z" fill="black"/>
<path d="M93.8334 57.7778H89.3889V62.2223H93.8334V57.7778Z" fill="black"/>
<path d="M116.056 57.7778H111.611V62.2223H116.056V57.7778Z" fill="black"/>
<path d="M9.3889 62.2222H4.94446V66.6666H9.3889V62.2222Z" fill="black"/>
<path d="M18.2778 62.2222H13.8334V66.6666H18.2778V62.2222Z" fill="black"/>
<path d="M22.7223 62.2222H18.2778V66.6666H22.7223V62.2222Z" fill="black"/>
<path d="M27.1666 62.2222H22.7222V66.6666H27.1666V62.2222Z" fill="black"/>
<path d="M31.6111 62.2222H27.1666V66.6666H31.6111V62.2222Z" fill="black"/>
<path d="M49.3889 62.2222H44.9445V66.6666H49.3889V62.2222Z" fill="black"/>
<path d="M53.8334 62.2222H49.3889V66.6666H53.8334V62.2222Z" fill="black"/>
<path d="M62.7223 62.2222H58.2778V66.6666H62.7223V62.2222Z" fill="black"/>
<path d="M67.1666 62.2222H62.7222V66.6666H67.1666V62.2222Z" fill="black"/>
<path d="M71.6111 62.2222H67.1666V66.6666H71.6111V62.2222Z" fill="black"/>
<path d="M76.0555 62.2222H71.6111V66.6666H76.0555V62.2222Z" fill="black"/>
<path d="M93.8334 62.2222H89.3889V66.6666H93.8334V62.2222Z" fill="black"/>
<path d="M111.611 62.2222H107.167V66.6666H111.611V62.2222Z" fill="black"/>
<path d="M9.3889 66.6666H4.94446V71.1111H9.3889V66.6666Z" fill="black"/>
<path d="M18.2778 66.6666H13.8334V71.1111H18.2778V66.6666Z" fill="black"/>
<path d="M27.1666 66.6666H22.7222V71.1111H27.1666V66.6666Z" fill="black"/>
<path d="M36.0555 66.6666H31.6111V71.1111H36.0555V66.6666Z" fill="black"/>
<path d="M40.5 66.6666H36.0555V71.1111H40.5V66.6666Z" fill="black"/>
<path d="M44.9444 66.6666H40.5V71.1111H44.9444V66.6666Z" fill="black"/>
<path d="M76.0555 66.6666H71.6111V71.1111H76.0555V66.6666Z" fill="black"/>
<path d="M80.5 66.6666H76.0555V71.1111H80.5V66.6666Z" fill="black"/>
<path d="M84.9444 66.6666H80.5V71.1111H84.9444V66.6666Z" fill="black"/>
<path d="M93.8334 66.6666H89.3889V71.1111H93.8334V66.6666Z" fill="black"/>
<path d="M98.2778 66.6666H93.8334V71.1111H98.2778V66.6666Z" fill="black"/>
<path d="M102.722 66.6666H98.2778V71.1111H102.722V66.6666Z" fill="black"/>
<path d="M111.611 66.6666H107.167V71.1111H111.611V66.6666Z" fill="black"/>
<path d="M116.056 66.6666H111.611V71.1111H116.056V66.6666Z" fill="black"/>
<path d="M9.3889 71.1111H4.94446V75.5555H9.3889V71.1111Z" fill="black"/>
<path d="M31.6111 71.1111H27.1666V75.5555H31.6111V71.1111Z" fill="black"/>
<path d="M44.9444 71.1111H40.5V75.5555H44.9444V71.1111Z" fill="black"/>
<path d="M49.3889 71.1111H44.9445V75.5555H49.3889V71.1111Z" fill="black"/>
<path d="M53.8334 71.1111H49.3889V75.5555H53.8334V71.1111Z" fill="black"/>
<path d="M62.7223 71.1111H58.2778V75.5555H62.7223V71.1111Z" fill="black"/>
<path d="M71.6111 71.1111H67.1666V75.5555H71.6111V71.1111Z" fill="black"/>
<path d="M76.0555 71.1111H71.6111V75.5555H76.0555V71.1111Z" fill="black"/>
<path d="M80.5 71.1111H76.0555V75.5555H80.5V71.1111Z" fill="black"/>
<path d="M89.3889 71.1111H84.9445V75.5555H89.3889V71.1111Z" fill="black"/>
<path d="M93.8334 71.1111H89.3889V75.5555H93.8334V71.1111Z" fill="black"/>
<path d="M107.167 71.1111H102.722V75.5555H107.167V71.1111Z" fill="black"/>
<path d="M116.056 71.1111H111.611V75.5555H116.056V71.1111Z" fill="black"/>
<path d="M9.3889 75.5555H4.94446V80H9.3889V75.5555Z" fill="black"/>
<path d="M18.2778 75.5555H13.8334V80H18.2778V75.5555Z" fill="black"/>
<path d="M36.0555 75.5555H31.6111V80H36.0555V75.5555Z" fill="black"/>
<path d="M40.5 75.5555H36.0555V80H40.5V75.5555Z" fill="black"/>
<path d="M49.3889 75.5555H44.9445V80H49.3889V75.5555Z" fill="black"/>
<path d="M53.8334 75.5555H49.3889V80H53.8334V75.5555Z" fill="black"/>
<path d="M62.7223 75.5555H58.2778V80H62.7223V75.5555Z" fill="black"/>
<path d="M67.1666 75.5555H62.7222V80H67.1666V75.5555Z" fill="black"/>
<path d="M71.6111 75.5555H67.1666V80H71.6111V75.5555Z" fill="black"/>
<path d="M80.5 75.5555H76.0555V80H80.5V75.5555Z" fill="black"/>
<path d="M84.9444 75.5555H80.5V80H84.9444V75.5555Z" fill="black"/>
<path d="M89.3889 75.5555H84.9445V80H89.3889V75.5555Z" fill="black"/>
<path d="M93.8334 75.5555H89.3889V80H93.8334V75.5555Z" fill="black"/>
<path d="M98.2778 75.5555H93.8334V80H98.2778V75.5555Z" fill="black"/>
<path d="M107.167 75.5555H102.722V80H107.167V75.5555Z" fill="black"/>
<path d="M44.9444 80H40.5V84.4444H44.9444V80Z" fill="black"/>
<path d="M53.8334 80H49.3889V84.4444H53.8334V80Z" fill="black"/>
<path d="M71.6111 80H67.1666V84.4444H71.6111V80Z" fill="black"/>
<path d="M80.5 80H76.0555V84.4444H80.5V80Z" fill="black"/>
<path d="M98.2778 80H93.8334V84.4444H98.2778V80Z" fill="black"/>
<path d="M107.167 80H102.722V84.4444H107.167V80Z" fill="black"/>
<path d="M9.3889 84.4445H4.94446V88.8889H9.3889V84.4445Z" fill="black"/>
<path d="M13.8334 84.4445H9.38892V88.8889H13.8334V84.4445Z" fill="black"/>
<path d="M18.2778 84.4445H13.8334V88.8889H18.2778V84.4445Z" fill="black"/>
<path d="M22.7223 84.4445H18.2778V88.8889H22.7223V84.4445Z" fill="black"/>
<path d="M27.1666 84.4445H22.7222V88.8889H27.1666V84.4445Z" fill="black"/>
<path d="M31.6111 84.4445H27.1666V88.8889H31.6111V84.4445Z" fill="black"/>
<path d="M36.0555 84.4445H31.6111V88.8889H36.0555V84.4445Z" fill="black"/>
<path d="M44.9444 84.4445H40.5V88.8889H44.9444V84.4445Z" fill="black"/>
<path d="M53.8334 84.4445H49.3889V88.8889H53.8334V84.4445Z" fill="black"/>
<path d="M62.7223 84.4445H58.2778V88.8889H62.7223V84.4445Z" fill="black"/>
<path d="M71.6111 84.4445H67.1666V88.8889H71.6111V84.4445Z" fill="black"/>
<path d="M80.5 84.4445H76.0555V88.8889H80.5V84.4445Z" fill="black"/>
<path d="M89.3889 84.4445H84.9445V88.8889H89.3889V84.4445Z" fill="black"/>
<path d="M98.2778 84.4445H93.8334V88.8889H98.2778V84.4445Z" fill="black"/>
<path d="M102.722 84.4445H98.2778V88.8889H102.722V84.4445Z" fill="black"/>
<path d="M116.056 84.4445H111.611V88.8889H116.056V84.4445Z" fill="black"/>
<path d="M9.3889 88.8889H4.94446V93.3334H9.3889V88.8889Z" fill="black"/>
<path d="M36.0555 88.8889H31.6111V93.3334H36.0555V88.8889Z" fill="black"/>
<path d="M44.9444 88.8889H40.5V93.3334H44.9444V88.8889Z" fill="black"/>
<path d="M49.3889 88.8889H44.9445V93.3334H49.3889V88.8889Z" fill="black"/>
<path d="M58.2778 88.8889H53.8334V93.3334H58.2778V88.8889Z" fill="black"/>
<path d="M71.6111 88.8889H67.1666V93.3334H71.6111V88.8889Z" fill="black"/>
<path d="M76.0555 88.8889H71.6111V93.3334H76.0555V88.8889Z" fill="black"/>
<path d="M80.5 88.8889H76.0555V93.3334H80.5V88.8889Z" fill="black"/>
<path d="M98.2778 88.8889H93.8334V93.3334H98.2778V88.8889Z" fill="black"/>
<path d="M116.056 88.8889H111.611V93.3334H116.056V88.8889Z" fill="black"/>
<path d="M9.3889 93.3334H4.94446V97.7778H9.3889V93.3334Z" fill="black"/>
<path d="M18.2778 93.3334H13.8334V97.7778H18.2778V93.3334Z" fill="black"/>
<path d="M22.7223 93.3334H18.2778V97.7778H22.7223V93.3334Z" fill="black"/>
<path d="M27.1666 93.3334H22.7222V97.7778H27.1666V93.3334Z" fill="black"/>
<path d="M36.0555 93.3334H31.6111V97.7778H36.0555V93.3334Z" fill="black"/>
<path d="M53.8334 93.3334H49.3889V97.7778H53.8334V93.3334Z" fill="black"/>
<path d="M58.2778 93.3334H53.8334V97.7778H58.2778V93.3334Z" fill="black"/>
<path d="M62.7223 93.3334H58.2778V97.7778H62.7223V93.3334Z" fill="black"/>
<path d="M67.1666 93.3334H62.7222V97.7778H67.1666V93.3334Z" fill="black"/>
<path d="M71.6111 93.3334H67.1666V97.7778H71.6111V93.3334Z" fill="black"/>
<path d="M76.0555 93.3334H71.6111V97.7778H76.0555V93.3334Z" fill="black"/>
<path d="M80.5 93.3334H76.0555V97.7778H80.5V93.3334Z" fill="black"/>
<path d="M84.9444 93.3334H80.5V97.7778H84.9444V93.3334Z" fill="black"/>
<path d="M89.3889 93.3334H84.9445V97.7778H89.3889V93.3334Z" fill="black"/>
<path d="M93.8334 93.3334H89.3889V97.7778H93.8334V93.3334Z" fill="black"/>
<path d="M98.2778 93.3334H93.8334V97.7778H98.2778V93.3334Z" fill="black"/>
<path d="M102.722 93.3334H98.2778V97.7778H102.722V93.3334Z" fill="black"/>
<path d="M107.167 93.3334H102.722V97.7778H107.167V93.3334Z" fill="black"/>
<path d="M9.3889 97.7778H4.94446V102.222H9.3889V97.7778Z" fill="black"/>
<path d="M18.2778 97.7778H13.8334V102.222H18.2778V97.7778Z" fill="black"/>
<path d="M22.7223 97.7778H18.2778V102.222H22.7223V97.7778Z" fill="black"/>
<path d="M27.1666 97.7778H22.7222V102.222H27.1666V97.7778Z" fill="black"/>
<path d="M36.0555 97.7778H31.6111V102.222H36.0555V97.7778Z" fill="black"/>
<path d="M49.3889 97.7778H44.9445V102.222H49.3889V97.7778Z" fill="black"/>
<path d="M62.7223 97.7778H58.2778V102.222H62.7223V97.7778Z" fill="black"/>
<path d="M67.1666 97.7778H62.7222V102.222H67.1666V97.7778Z" fill="black"/>
<path d="M71.6111 97.7778H67.1666V102.222H71.6111V97.7778Z" fill="black"/>
<path d="M84.9444 97.7778H80.5V102.222H84.9444V97.7778Z" fill="black"/>
<path d="M89.3889 97.7778H84.9445V102.222H89.3889V97.7778Z" fill="black"/>
<path d="M102.722 97.7778H98.2778V102.222H102.722V97.7778Z" fill="black"/>
<path d="M111.611 97.7778H107.167V102.222H111.611V97.7778Z" fill="black"/>
<path d="M116.056 97.7778H111.611V102.222H116.056V97.7778Z" fill="black"/>
<path d="M9.3889 102.222H4.94446V106.667H9.3889V102.222Z" fill="black"/>
<path d="M18.2778 102.222H13.8334V106.667H18.2778V102.222Z" fill="black"/>
<path d="M22.7223 102.222H18.2778V106.667H22.7223V102.222Z" fill="black"/>
<path d="M27.1666 102.222H22.7222V106.667H27.1666V102.222Z" fill="black"/>
<path d="M36.0555 102.222H31.6111V106.667H36.0555V102.222Z" fill="black"/>
<path d="M80.5 102.222H76.0555V106.667H80.5V102.222Z" fill="black"/>
<path d="M93.8334 102.222H89.3889V106.667H93.8334V102.222Z" fill="black"/>
<path d="M107.167 102.222H102.722V106.667H107.167V102.222Z" fill="black"/>
<path d="M116.056 102.222H111.611V106.667H116.056V102.222Z" fill="black"/>
<path d="M9.3889 106.667H4.94446V111.111H9.3889V106.667Z" fill="black"/>
<path d="M36.0555 106.667H31.6111V111.111H36.0555V106.667Z" fill="black"/>
<path d="M44.9444 106.667H40.5V111.111H44.9444V106.667Z" fill="black"/>
<path d="M49.3889 106.667H44.9445V111.111H49.3889V106.667Z" fill="black"/>
<path d="M80.5 106.667H76.0555V111.111H80.5V106.667Z" fill="black"/>
<path d="M93.8334 106.667H89.3889V111.111H93.8334V106.667Z" fill="black"/>
<path d="M98.2778 106.667H93.8334V111.111H98.2778V106.667Z" fill="black"/>
<path d="M116.056 106.667H111.611V111.111H116.056V106.667Z" fill="black"/>
<path d="M9.3889 111.111H4.94446V115.556H9.3889V111.111Z" fill="black"/>
<path d="M13.8334 111.111H9.38892V115.556H13.8334V111.111Z" fill="black"/>
<path d="M18.2778 111.111H13.8334V115.556H18.2778V111.111Z" fill="black"/>
<path d="M22.7223 111.111H18.2778V115.556H22.7223V111.111Z" fill="black"/>
<path d="M27.1666 111.111H22.7222V115.556H27.1666V111.111Z" fill="black"/>
<path d="M31.6111 111.111H27.1666V115.556H31.6111V111.111Z" fill="black"/>
<path d="M36.0555 111.111H31.6111V115.556H36.0555V111.111Z" fill="black"/>
<path d="M44.9444 111.111H40.5V115.556H44.9444V111.111Z" fill="black"/>
<path d="M53.8334 111.111H49.3889V115.556H53.8334V111.111Z" fill="black"/>
<path d="M58.2778 111.111H53.8334V115.556H58.2778V111.111Z" fill="black"/>
<path d="M62.7223 111.111H58.2778V115.556H62.7223V111.111Z" fill="black"/>
<path d="M80.5 111.111H76.0555V115.556H80.5V111.111Z" fill="black"/>
<path d="M89.3889 111.111H84.9445V115.556H89.3889V111.111Z" fill="black"/>
<path d="M102.722 111.111H98.2778V115.556H102.722V111.111Z" fill="black"/>
<path d="M116.056 111.111H111.611V115.556H116.056V111.111Z" fill="black"/>
</g>
<defs>
<clipPath id="clip0_221_1228">
<rect width="120" height="120" fill="white" transform="translate(0.5)"/>
</clipPath>
</defs>
</svg>
